<svg xmlns="http://www.w3.org/2000/svg" width="40" height="25" viewBox="0 0 356 229" shape-rendering="geometricPrecision" text-rendering="geometricPrecision" image-rendering="optimizeQuality" fill-rule="evenodd" clip-rule="evenodd"><path class="fil0 str0" d="M350 23v177c0 12-4 18-14 18H28c-10 0-15-6-16-18V24c0-12 5-18 16-18l308 1c9 1 15 5 14 16z" fill="#e4e4e4" stroke="#a9a6aa" stroke-width="8.47"/><path class="fil1" d="M199 190c42 0 81-35 81-78 0-46-39-78-81-78h-37c-43 0-79 32-79 78 0 43 36 78 79 78h37z" fill="#0064a7"/><path class="fil2" d="M178 154V69c17 7 29 23 29 43 0 19-12 35-29 42zm-61-42c0-20 12-36 29-43v85c-17-7-29-23-29-42zm45-72c-39 0-71 32-71 72 0 39 32 71 71 71s71-32 71-71c0-40-32-72-71-72z" fill="#fff"/></svg>