<svg xmlns="http://www.w3.org/2000/svg" xml:space="preserve" width="40" height="25" version="1.1" viewBox="0 0 356 229" id="boleto" shape-rendering="geometricPrecision" text-rendering="geometricPrecision" image-rendering="optimizeQuality" fill-rule="evenodd" clip-rule="evenodd"><defs><style>#boleto .fil2{fill:#373435;fill-rule:nonzero}</style></defs><g id="Camada_x0020_1"><path class="fil0 str0" d="M350 23v177c0 12-4 18-14 18H28c-10 0-15-6-16-18V24c0-12 5-18 16-18l308 1c9 1 15 5 14 16z" fill="#e4e4e4" stroke="#a9a6aa" stroke-width="8.47"/><g id="_498986504128"><path class="fil1" d="M65 201c3 0 5-2 5-4V26c0-3-2-5-5-5-2 0-4 2-4 5v171c0 2 2 4 4 4zm231 0c2 0 5-2 5-4V26c0-3-3-5-5-5-3 0-5 2-5 5v171c0 2 2 4 5 4zM84 164c2 0 4-2 4-4V26c0-3-2-5-4-5-3 0-5 2-5 5v134c0 2 2 4 5 4zm13 0c3 0 5-2 5-4V26c0-3-2-5-5-5-2 0-4 2-4 5v134c0 2 2 4 4 4zm24 0c2 0 4-2 4-4V26c0-3-2-5-4-5-3 0-5 2-5 5v134c0 2 2 4 5 4zm13 0c3 0 5-2 5-4V26c0-3-2-5-5-5-2 0-4 2-4 5v134c0 2 2 4 4 4zm14 0c3 0 5-2 5-4V26c0-3-2-5-5-5-2 0-4 2-4 5v134c0 2 2 4 4 4zm28 0c2 0 5-2 5-4V26c0-3-3-5-5-5-3 0-5 2-5 5v134c0 2 2 4 5 4zm23 0c3 0 5-2 5-4V26c0-3-2-5-5-5s-5 2-5 5v134c0 2 2 4 5 4zm14 0c2 0 4-2 4-4V26c0-3-2-5-4-5-3 0-5 2-5 5v134c0 2 2 4 5 4zm23 0c2 0 5-2 5-4V26c0-3-3-5-5-5-3 0-5 2-5 5v134c0 2 2 4 5 4zm14 0c2 0 4-2 4-4V26c0-3-2-5-4-5-3 0-5 2-5 5v134c0 2 2 4 5 4zm27 0c3 0 5-2 5-4V26c0-3-2-5-5-5-2 0-4 2-4 5v134c0 2 2 4 4 4z"/><path class="fil2" d="M90 172h19c1 1 2 1 3 2 1 0 2 1 3 2 0 1 1 2 1 3 0 2-1 3-1 4-1 1-2 2-4 3 2 0 4 1 5 2s1 3 1 5c0 1 0 2-1 3 0 2-1 3-3 3-1 1-2 1-4 2H90v-29zm6 5v7h5c2 0 4-1 5-1s2 0 2-1c1 0 1-1 1-2s0-1-1-2c0-1-1-1-2-1H96zm0 11v8h11c1 0 2-1 3-1v-5c-1-1-1-1-2-1-1-1-3-1-6-1h-6z"/><path id="1" class="fil2" d="M122 187c0-3 0-6 1-8 1-1 2-2 3-4 2-1 3-2 4-2 3-1 5-1 8-1 4 0 8 1 11 4 3 2 5 6 5 11 0 4-2 8-5 10-3 3-6 4-11 4s-9-1-12-4c-3-2-4-6-4-10zm6-1c0 4 1 6 3 8s4 2 7 2c2 0 5 0 6-2 2-2 3-4 3-8 0-3-1-5-3-7-1-2-4-2-6-2-3 0-5 0-7 2s-3 4-3 7z"/><path id="2" class="fil2" d="M159 201v-29h7v24h16v5z"/><path id="3" class="fil2" d="M187 201v-29h25v5h-18v6h16v5h-16v8h18v5z"/><path id="4" class="fil2" d="M225 201v-24h-10v-5h27v5h-10v24z"/><path id="5" class="fil2" d="M244 187c0-3 0-6 1-8 1-1 2-2 3-4 2-1 3-2 5-2 2-1 4-1 7-1 5 0 9 1 11 4 3 2 5 6 5 11 0 4-2 8-5 10-2 3-6 4-11 4s-9-1-12-4c-3-2-4-6-4-10zm7-1c0 4 1 6 2 8 2 2 4 2 7 2 2 0 5 0 6-2 2-2 3-4 3-8 0-3-1-5-3-7-1-2-3-2-6-2s-5 0-7 2-2 4-2 7z"/></g></g></svg>