<svg xmlns="http://www.w3.org/2000/svg" xml:space="preserve" width="40" height="25" version="1.1" viewBox="0 0 356 229" id="master" shape-rendering="geometricPrecision" text-rendering="geometricPrecision" image-rendering="optimizeQuality" fill-rule="evenodd" clip-rule="evenodd"><defs><style>#master .fil1{fill:#fcb131}#master .fil3{fill:#fff}</style></defs><g id="Camada_x0020_1"><path class="fil0 str0" d="M350 23v177c0 12-4 18-14 18H28c-10 0-15-6-16-18V24c0-12 5-18 16-18l308 1c9 1 15 5 14 16z" fill="#e4e4e4" stroke="#a9a6aa" stroke-width="8.47"/><g id="_500327063856"><path class="fil1" d="M178 170c14 13 33 21 54 21 44 0 80-36 80-80 0-45-36-81-80-81-21 0-40 8-54 21-16 15-26 36-26 60 0 23 10 45 26 59z"/><path class="fil1" d="M301 156c0-2 1-3 3-3 1 0 2 1 2 3 0 1-1 2-2 2-2 0-3-1-3-2zm3 2c1 0 2-1 2-2s-1-2-2-2-2 1-2 2 0 2 2 2zm-1-1v-3h1v1h1l-1 1 1 1h-1v-1h-1v1-1c1 0 1 0 1-1h-1v2z"/><path class="fil2" d="M204 102c0-3-1-5-1-8h-49c0-3 1-6 2-9h44c-1-3-2-5-3-8h-38c2-3 3-6 5-9h28c-1-3-3-6-6-8h-16c3-3 5-6 8-9-14-13-33-20-53-20-44 0-80 36-80 80s36 80 80 80c20 0 39-8 53-21 3-2 6-5 8-8h-16l-6-9h28c2-2 4-5 5-8h-37c-2-3-3-6-4-8h44l3-9c0-3 1-6 1-9v-17z" fill="#ed1b2e"/><path class="fil3" d="M301 129c0-1 1-2 3-2 1 0 2 1 2 2 0 2-1 3-2 3-2 0-3-1-3-3zm3 2c1 0 2 0 2-2 0-1-1-2-2-2s-2 1-2 2c0 2 0 2 2 2zm-1 0v-3h1c0 1 1 1 1 1l-1 1 1 1h-1v-1h-1v1-2 2z"/><path class="fil4" d="M151 134c-3 1-5 1-7 1-4 0-6-3-6-7v-3l1-3v-3l4-23h8l-1 5h5l-1 9h-5l-2 13c0 1-1 1-1 2s1 2 3 2h3l-1 7zm27 0c-3 1-6 1-9 1-9 0-15-5-15-15 0-11 7-20 15-20 7 0 12 5 12 13 0 2 0 4-1 8h-17v1c0 4 2 6 7 6 3 0 6-1 9-3l-1 9zm-5-20v-2c0-2-2-4-4-4-3 0-5 2-6 6h10zm-88 20h-9l5-31-11 31h-6l-1-31-5 31h-8l6-40h13v25l9-25h13zm21-14h-2c-5 0-8 1-8 5 0 2 2 3 4 3 4 0 5-3 6-8zm6 14h-7v-3c-2 3-4 4-9 4-4 0-8-4-8-9 0-2 1-3 1-4 1-6 6-9 14-9h4v-2c0-2-1-3-5-3-3 0-6 1-8 1l-1 1 1-8c4-1 7-1 10-1 7 0 11 3 11 9 0 2 1 3 0 7l-2 12v5h-1zm107-32c3 0 5 0 8 2l2-9c-1 0-1-1-2-1l-4-1h-4c-4 0-7 0-9 1s-4 3-6 5l-1-1-8 7v-4h-9l-5 33h8l3-18s2-2 2-3c2-2 3-2 5-2h1c-1 2-1 4-1 6 0 11 6 18 16 18 2 0 4 0 7-1l2-9c-3 1-5 2-7 2-5 0-8-4-8-10-1-9 4-15 10-15zm74-8l-2 11c-2-3-5-4-8-4-5 0-9 2-11 7l-6-3v-4h-9l-5 33h9l3-18s2-2 2-3c2-1 3-2 4-2-1 3-1 6-1 10 0 8 4 14 10 14 3 0 6-1 8-4v3h8l7-40h-9zm-11 33c-3 0-4-3-4-7 0-6 2-11 6-11 3 0 5 2 5 7 0 6-3 11-7 11zm-40-7h-1c-5 0-8 1-8 5 0 2 1 3 3 3 4 0 6-3 6-8zm7 14h-7v-3c-2 3-5 4-9 4-5 0-8-4-8-9 0-8 6-13 15-13h4v-2c0-2-2-3-6-3-2 0-5 1-7 1l-1 1h-1l2-8c4-1 7-1 10-1 7 0 11 3 11 9v7l-2 12v2l-1 1v2zm-118-26c1 0 4 1 6 1l1-8h-7c-10 0-13 5-13 11 0 4 2 7 6 9s4 2 4 3c0 2-2 4-5 4s-5-1-8-2l-1 8h2c1 0 1 1 2 1h5c10 0 14-4 14-11 0-5-2-7-7-9-3-2-4-2-4-4 0-1 2-3 5-3z" fill="#003473"/><path class="fil3" d="M231 92l-1 9c-4-1-6-2-8-2-7 0-11 6-11 15 0 6 3 10 8 10 2 0 4 0 7-2l-1 10c-4 0-6 1-8 1-9 0-15-7-15-18 0-14 8-25 19-25 2 0 3 1 4 1l4 1h2zm-28 6h-1c-3 0-4 2-7 6l1-5h-8l-5 33h8c3-20 4-24 8-24h1c1-4 2-7 3-10zm-50 33c-2 1-4 2-6 2-4 0-7-3-7-8v-3l1-3v-3l4-22h9l-1 5h4l-1 8h-4l-3 14v1c0 2 1 2 3 2h2l-1 7zm-33-22c0 4 2 7 6 9s4 3 4 4c0 2-1 3-4 3s-5 0-8-1l-1 7 2 1h7c9 0 13-3 13-11 0-4-2-7-6-9s-4-2-4-4c0-1 1-2 4-2h6l2-7c-3-1-6-1-8-1-10 0-13 5-13 11zm177 23h-8v-3c-2 2-4 3-8 3-6 0-10-5-10-13 0-11 6-21 14-21 3 0 6 2 8 5l2-12h9l-7 41zm-13-8c4 0 7-5 7-11 0-4-1-7-4-7-4 0-7 5-7 11 0 5 1 7 4 7zm-104 7c-3 1-6 1-9 1-10 0-15-5-15-14 0-12 6-20 15-20 7 0 12 5 12 12 0 2 0 5-1 8h-17v1c0 4 2 6 7 6 3 0 6-1 9-2l-1 8zm-5-20v-1c0-3-2-5-4-5-3 0-5 3-6 6h10zm-88 21h-9l5-31-11 31h-6v-31l-6 31h-8l7-41h12l1 25 8-25h14zm21-15h-2c-5 0-7 2-7 5 0 2 1 3 3 3 4 0 6-3 6-8zm7 15h-8l1-4c-3 3-6 4-10 4s-7-3-7-9c0-8 5-12 15-12h3c1-1 1-2 1-2 0-2-2-3-6-3-2 0-5 0-7 1h-2l1-7c4-1 7-2 10-2 8 0 12 3 12 10 0 1 0 3-1 6l-2 12v6z"/><path class="fil3" d="M245 117h-2c-5 0-7 2-7 5 0 2 1 3 3 3 3 0 6-3 6-8zm6 15h-7v-4c-2 3-5 4-9 4-5 0-8-3-8-9 0-8 6-12 15-12h4v-2c0-2-1-3-5-3-3 0-6 0-8 1h-1l1-7c4-1 7-2 10-2 7 0 11 3 11 10v6l-2 12v2l-1 2v2zm24-34h-1c-3 0-5 2-7 6v-5h-8l-5 33h9c3-20 4-24 8-24h1c0-4 1-7 3-10z"/></g></g></svg>