<svg xmlns="http://www.w3.org/2000/svg" xml:space="preserve" width="40" height="25" version="1.1" viewBox="0 0 347 229" id="elo" shape-rendering="geometricPrecision" text-rendering="geometricPrecision" image-rendering="optimizeQuality" fill-rule="evenodd" clip-rule="evenodd"><defs><style>#elo .fil1{fill:#100611}#elo .fil3{fill:#fdfdfd}</style></defs><g id="Camada_x0020_1"><path class="fil0 str0" d="M346 23v177c0 12-4 18-14 18H24c-10 0-15-6-16-18V24C8 12 13 6 24 6l308 1c9 1 15 5 14 16z" fill="#e4e4e4" stroke="#a9a6aa" stroke-width="8.47"/><g id="_498993159168"><path class="fil1" d="M143 141c-7 0-9-2-14-4 0-3 4-7 6-10 1 0 3 1 4 2h6c2 0 3-1 5-2 1 0 2-1 4-2l8 8c-4 5-11 8-19 8zm44 1c-2-1-4-2-7-3-2-1-4-2-6-4s-2-4-2-7c1-16 0-33 1-49h9v50l9 3-4 10zm56-17c-1 3-3 6-6 9l-6 4c-1 1-3 2-6 2-1 1-4 1-6 1h-8c1-2 4-10 5-11 6 0 9 0 13-3 3-3 5-6 6-11h11l-2 7c0 1 0 1-1 2zm-33 3c-1 0-1 1-2 1l-3 5c0 1 0 2-2 2-3 0-10-10-10-20 0-5 1-10 3-13 1-2 5-8 7-8l5 8c-5 6-7 12-2 20 1 2 3 4 4 5zm-90 1c-2-3-4-4-6-9-2-3-3-7-3-12 0-17 16-29 32-26 4 1 8 2 11 4 1 2 6 6 7 9l-20 17c-4 3-7 5-10 8-2 2-9 8-11 9zm125-21c-2 0-4 1-6 1h-5c-1-2-2-3-3-4-3-3-6-6-10-6-6 0-4 0-7 1 0-1-4-8-4-10 8-3 16-2 23 2 5 3 12 11 12 16zm-73-84c-2 1-3 1-5 1-21 4-38 13-52 29-13 16-23 38-21 65 4 45 45 83 95 78 45-5 82-44 77-95-3-33-25-62-56-73-10-3-26-7-38-5z"/><path class="fil2" d="M124 113c-2-2-1-7-1-10 4-11 18-12 23-8l-22 18zm-4 16c2-1 9-7 11-9 3-3 6-5 10-8l20-17c-1-3-6-7-7-9-3-2-7-3-11-4-16-3-32 9-32 26 0 5 1 9 3 12 2 5 4 6 6 9z" fill="#fff"/><path class="fil3" d="M191 132l-9-3V79h-9c-1 16 0 33-1 49 0 3 0 5 2 7s4 3 6 4c3 1 5 2 7 3l4-10z"/><path class="fil4" d="M210 128c-1-1-3-3-4-5-5-8-3-14 2-20l-5-8c-2 0-6 6-7 8-2 3-3 8-3 13 0 10 7 20 10 20 2 0 2-1 2-2l3-5c1 0 1-1 2-1z" fill="#1797cb"/><path class="fil5" d="M210 90c0 2 4 9 4 10 3-1 1-1 7-1 4 0 7 3 10 6 1 1 2 2 3 4h5c2 0 4-1 6-1 0-5-7-13-12-16-7-4-15-5-23-2z" fill="#f6eb24"/><path class="fil3" d="M143 141c8 0 15-3 19-8l-8-8c-2 1-3 2-4 2-2 1-3 2-5 2h-6c-1-1-3-2-4-2-2 3-6 7-6 10 5 2 7 4 14 4z"/><path class="fil6" d="M225 140c3 0 5-1 6-2l6-4c3-3 5-6 6-9 0-3 1-4 1-8h-7l-1 1-3 7c-2 3-5 5-9 6-7 2-6-3-9 5-1 2-2 2-2 4 2 0 7 1 9 0h3z" fill="#dd3323"/><path class="fil1" d="M124 113l22-18c-5-4-19-3-23 8 0 3-1 8 1 10z"/><path class="fil7" d="M225 140h-3c-2 1-7 0-9 0 0-2 1-2 2-4 3-8 2-3 9-5 4-1 7-3 9-6l3-7 1-1h7c0 4-1 5-1 8 1-1 1-1 1-2l2-7h-11c-1 5-3 8-6 11-4 3-7 3-13 3-1 1-4 9-5 11h8c2 0 5 0 6-1z" fill="#ab453a"/></g></g></svg>