<svg xmlns="http://www.w3.org/2000/svg" xml:space="preserve" width="40" height="25" version="1.1" viewBox="0 0 347 229" id="amex" shape-rendering="geometricPrecision" text-rendering="geometricPrecision" image-rendering="optimizeQuality" fill-rule="evenodd" clip-rule="evenodd"><defs><style>#amex .fil3{fill:#0571c1}#amex .fil2{fill:#228fe0}#amex .fil1{fill:#2fabf7}</style></defs><g id="Camada_x0020_1"><path class="fil0 str0" d="M346 23v177c0 12-4 18-14 18H24c-10 0-15-6-16-18V24C8 12 13 6 24 6l308 1c9 1 15 5 14 16z" fill="#e4e4e4" stroke="#a9a6aa" stroke-width="8.47"/><g id="_498993117472"><path class="fil1" d="M62 92h10l-5-12z"/><path class="fil2" d="M179 82c-1-1-2-1-4-1h-8v7h12c1-1 1-2 1-3 0-2 0-3-1-3z"/><path class="fil3" d="M270 69v5l-3-5h-20v5l-2-5h-28c-4 0-8 1-11 2v-2h-20v2c-2-1-4-2-8-2h-68l-5 11-5-11H78v5l-2-5H58l-9 20-10 22h22l3-7h6l2 7h25v-5l2 5h12l2-5v5h60v-11h1v11h31v-3c3 1 7 3 12 3h12l3-7h6l3 7h24v-7l4 7h20V69h-19zm-144 36h-7V81l-11 24h-6L92 81v24H77l-3-7H60l-3 7h-8l13-30h11l11 28V75h12l9 20 9-20h12v30zm29-24h-17v6h16v6h-16v6h17v6h-24V75h24v6zm32 13c1 1 1 3 1 5v6h-7v-4c0-1 0-4-1-6-2-1-3-1-6-1h-7v11h-8V75h17c4 0 6 0 8 1s4 4 4 7c0 5-3 7-5 8 2 1 3 2 4 3zm13 11h-8V74h8v31zm84 0h-11l-13-23v23h-15l-2-7h-15l-3 7h-8c-3 0-8-1-10-3-3-3-4-6-4-12 0-4 1-8 4-12 2-2 6-3 10-3h7v6h-7c-2 0-3 1-5 2-1 1-2 4-2 7s0 5 2 7c1 1 3 2 5 2h3l10-24h11l11 29V75h11l12 21V75h8v30h1z"/><path class="fil2" d="M230 92h10l-5-12zm-72 61v-24l-11 12z"/><path class="fil1" d="M112 132v6h16v6h-16v6h18l8-9-8-9z"/><path class="fil2" d="M174 132h-9v8h9c3 0 5-2 5-4-1-3-2-4-5-4z"/><path class="fil3" d="M306 139v-19h-18c-4 0-7 1-9 3v-3h-20c-3 0-7 1-8 3v-3h-35v3c-2-2-7-3-9-3h-23v3c-2-2-7-3-10-3h-26l-6 6-5-6H99v42h37l6-7 6 7h23v-10h3c3 0 6 0 9-1v11h20v-11c2 0 2 0 2 1v10h58c4 0 7-1 9-2v2h19c4 0 7 0 10-2 4-2 7-7 7-13 0-3-1-6-2-8zm-132 7h-9v10h-14l-8-9-9 9h-28v-30h28l9 10 9-10h22c6 0 12 2 12 10s-6 10-12 10zm42-2c1 2 1 3 1 6v6h-7v-4c0-2 0-5-1-6s-3-1-5-1h-8v11h-7v-30h16c4 0 7 0 9 1s3 3 3 7-3 7-5 8l4 2zm30-12h-17v6h16v6h-16v6h17v6h-24v-30h24v6zm18 24h-14v-6h14c1 0 2 0 3-1v-5h-3c-7-1-15 0-15-10 0-4 3-9 10-9h14v7h-13c-1 0-2 0-3 1-1 0-1 1-1 2s1 2 2 2c1 1 2 1 3 1h3c4 0 7 0 8 2 2 1 3 4 3 7 0 6-4 9-11 9zm36-3c-2 2-4 3-9 3h-13v-6h13c2 0 2 0 3-1s1-2 1-2c0-1 0-2-1-3h-2c-7-1-15 0-15-10 0-4 2-9 10-9h14v7h-13c-1 0-2 0-3 1-1 0-1 1-1 2s1 2 2 2c1 1 2 1 3 1h4c3 0 6 0 8 2v1c1 1 2 3 2 6 0 2-1 4-3 6z"/><path class="fil2" d="M209 133c-1-1-3-1-4-1h-8v7h12c0-1 1-2 1-3 0-2-1-3-1-3zM179 82c-1-1-2-1-4-1h-8v7h12c1-1 1-2 1-3 0-2 0-3-1-3zm51 10h10l-5-12z"/><path class="fil2" d="M158 153v-24l-11 12zm16-21h-9v8h9c3 0 5-2 5-4-1-3-2-4-5-4zm35 1c-1-1-3-1-4-1h-8v7h12c0-1 1-2 1-3 0-2-1-3-1-3z"/><path class="fil1" d="M171 155l-6-6v7h-14l-9-10-9 10h-28v-30h28l9 10 5-5-11-11H99v42h37l6-7 6 7h23zM127 111l-6-6h-2v-3l-7-6-4 9h-6L92 81v24H77l-3-7H60l-3 7h-8l13-30h11l11 28V75h7l-6-6h-7v5l-2-5H58l-9 20-10 22h22l3-7h6l3 7h24v-5l2 5h12l2-5v5z"/><path class="fil1" d="M107 91l-7-7 5 11z"/><g><path class="fil2" d="M301 160c4-3 6-7 7-12l-6-6c0 2 1 3 1 5s-1 4-3 6-4 3-9 3h-13v-6h13c2 0 2 0 3-1s1-2 1-2c0-1 0-2-1-3h-2c-7-1-15 0-15-10 0-4 2-8 9-9l-5-4h-2v-2h-19c-3 0-7 1-9 2v-2h-35v2c-2-2-7-2-9-2h-23v2c-2-2-7-2-10-2h-26l-6 6-5-6h-5l13 13 6-7h23c6 0 12 1 12 10 0 8-6 10-12 10h-9v6l6 7v-7h3c3 0 6 0 9-1v11h20v-11c2 0 2 0 2 2v9h58c4 0 7 0 9-2v2h19c3 1 7 0 10-1zm-85-16c1 2 1 3 1 6v6h-7v-4c0-2 0-5-1-6s-3-1-5-1h-8v11h-7v-30h16c4 0 7 0 9 1s3 3 3 7-3 7-5 8l4 2zm30-12h-17v6h16v6h-16v6h17v6h-24v-30h24v6zm18 24h-14v-6h14c1 0 2 0 3-1v-5h-3c-7-1-15 0-15-10 0-4 3-9 10-9h14v7h-13c-1 0-2 0-3 1-1 0-1 1-1 2s1 2 2 2c1 1 2 1 3 1h3c4 0 7 0 8 2 2 1 3 4 3 7 0 6-4 9-11 9z"/><path class="fil2" d="M284 135c0 1 0 2 2 2 1 1 1 1 2 1h4c3 0 4 0 6 1l-6-7h-4c-1 0-2 0-3 1-1 0-1 1-1 2z"/></g><g><path class="fil2" d="M269 109l1 2zm-23-23l7 17V93z"/><path class="fil2" d="M173 100h1v11h31v-3c3 1 7 3 12 3h12l3-7h6l3 7h24v-5l-6-6v5h-14l-2-7h-15l-3 7h-8c-3 0-8-1-10-3-3-3-4-6-4-12 0-4 1-8 4-12 2-2 6-3 10-3h7v6h-7c-2 0-3 1-5 2-1 1-2 4-2 7s0 5 2 7c1 1 3 2 5 2h3l10-24h4l-6-6h-11c-5 0-8 1-12 3v-3h-19v3c-2-2-4-3-8-3h-68l-5 11-5-11H81l6 6h9l7 16 3 3 7-19h12v30h-7V82l-7 17 12 12h49l1-11zm19-25h8v30h-8V75zm-37 6h-17v6h16v6h-16v6h17v6h-24V75h24v6zm12 24h-8V74h17c4 0 6 0 8 2 2 1 4 3 4 7s-3 7-5 8c1 0 3 1 3 2 1 2 1 3 1 6v6h-7v-4c0-2 0-4-1-6-1-1-2-1-5-1h-7v11z"/></g></g></g></svg>