<svg xmlns="http://www.w3.org/2000/svg" width="40" height="25" viewBox="0 0 347 229" shape-rendering="geometricPrecision" text-rendering="geometricPrecision" image-rendering="optimizeQuality" fill-rule="evenodd" clip-rule="evenodd"><path class="fil0 str0" d="M346 23v177c0 12-4 18-14 18H24c-10 0-15-6-16-18V24C8 12 13 6 24 6l308 1c9 1 15 5 14 16z" fill="#e4e4e4" stroke="#a9a6aa" stroke-width="8.47"/><path class="fil1" d="M169 114h-21c0 1-1 3-1 4 0 2 0 3 1 4 0 2 1 3 3 4s4 1 7 1c1 0 3 0 4-1 1 0 3-1 4-1 0 1-1 3-1 4v1l-11 1h-6c-1-1-2-1-4-2v-1c-1-1-2-2-2-3-1-3-1-4-1-7v-3c1-2 2-5 3-7s1-3 3-4c2-3 5-4 8-4l1-1c2 0 5 0 7 1h2c3 1 5 4 5 6 0 3 0 4-1 7v1zm52-9l1-5h6l5-1c3 0 7 1 8 2 1 0 1 1 1 1 1 0 1 0 1 1 1 1 0 2 0 4v2l-2 12c0 2-1 6-1 6v4h-5v-5l-1 1c-1 2-4 3-6 4-3 1-2 0-4 0h-4s-1 0-1-1c-2 0-3-1-3-3-1-1-1-3-1-4 0-2 1-5 2-7 2-2 3-3 6-4 2-1 4-1 6-1h8c1-1 1-3 1-5l-1-1-1-1h-2l-1-1c-1 0-5 0-5 1l-7 1zm-103-2c1 0 1-1 2-1l6-3h4c1 0 3 1 4 1 2 2 4 3 5 6v7c-1 3-1 4-2 8-2 4-4 8-9 9l-4 1h-4c-1 0-2 0-3-1l-2-2v-1c-1 2-1 5-1 7-1 3-2 8-2 10h-6l6-33c0-2 0-3 1-5l1-6h5c0 1 0 2-1 3zm78 15c0 2-1 4 0 5 0 1 1 2 1 2 2 2 3 2 5 2 3 0 5 0 7-1l2-1c0 1 0 5-1 5h-2c-4 2-12 3-16-1 0-1 0-1-1-1-1-2-1-3-2-4 0-6 0-9 2-14v-1h1v-1l2-4 2-1c2-2 5-3 7-3l3-1h4l4 1h2l-1 4c0 1 0 1-1 1-1-1-1-1-3-1-2-1-1-1-3-1h-1c-2 0-5 1-6 2-3 2-4 6-5 8v5zm59-13c1 0 1-1 2-2 0 0 1-1 2-1 1-1 3-3 4-3h2c1 0 2 1 2 1v3c0 1 0 2-1 1h-1c-3 0-4 0-6 1l-1 1c-3 3-3 4-4 8 0 2-2 14-2 15v2h-7l3-12c0-2 1-5 1-7l2-12h5v2c0 1 0 2-1 3zm-153 26h-6c0-1 0-2 1-2 0-3 1-7 1-10 1-1 1-2 1-3v-2c1-3 2-9 2-12 0-1 0-1 1-2h6c0 1 0 1-1 2-1 7-3 18-4 25 0 1 0 2-1 4zm78-26c1 0 2-1 2-2l2-2c1-1 3-2 5-2 1 0 3 1 3 1v4h-5c-1 0-2 1-3 2-4 3-5 8-5 13-1 2-2 10-2 12h-6v-4c1-1 1-2 1-4l1-3v-2c1-3 1-7 2-10 0-2 1-6 1-8h5v2l-1 3zm-74-10c-1 0-2 0-3-1s0-4 1-6c1-1 4-2 5 0 1 1 1 2 1 3s-2 4-4 4zm-16 36h-7c0-2 1-9 1-11 1-1 2-10 2-11H67c-1 0-1 2-1 2 0 3-1 6-1 9l-2 11h-7v-3l6-30c0-2 0-3 1-5v-4c0-1 0-1 1-1h6v3l-1 5v2c-2 8-3 7 1 7h17l3-17h7v2l-1 5c-1 5-2 11-3 16 0 1 0 2-1 3l-1 6c0 1-1 10-1 11zm200 0h-5v-5 1l-2 2c-1 0-1 1-1 1-2 1-2 1-5 1-3 1-7 0-10-2-2-1-2-4-3-6v-6c1-3 2-5 3-8v-1c1-2 2-2 4-4 0-1 4-3 5-4 3-1 3 0 6-1l4 1h3s0-1 1-1l1-12h7l-1 2v3l-1 3v2c-1 3-2 9-2 11-1 1-1 2-1 3v3c-1 2-1 3-1 5-1 3-1 8-1 10 0 1 0 2-1 2zM30 176h249c4-1 9-3 12-5 2-1 4-2 5-4l2-2 1-2c1-2 1-3 2-5l5-27c1-3 2-8 2-11l5-22c0-2 1-4 1-6v-1l6-29c1-2 3-13 3-13H79c-4 0-11 2-15 3l-2 2c-1 0-2 1-3 2 0 0-1 0-1 1-3 2-5 6-6 10l-1 7c-1 3-2 7-2 11-1 4-2 9-3 14l-3 13v2c-1 3-2 7-3 11l-1 7c-1 3-2 8-2 11l-3 15c-1 3-2 7-3 11 0 1-1 6-1 7z" fill="#b3131b"/><path class="fil2" d="M121 127c2 0 4 0 5-1h1l2-2 1-2c1-2 2-3 2-5s1-2 1-5c0-2 0-4-1-6l-1-1c-1-1-2-1-3-1-2-1-1-1-4-1-1 0-4 2-5 3s-1 0-1 1c0 3-3 14-2 16l1 2s0 1 1 1l1 1h2zm150-8c0 1-1 3 0 5l1 1c0 2 3 2 5 2h3c1-1 2-1 2-2h1c1-1 1-2 2-3 1-3 2-10 3-14l1-4h-2c-3-1-4-1-7-1l-2 1c-1 0-1 1-2 1-3 2-5 8-5 11v3zm-45 8h3c1 0 1 0 2-1l2-2 1-1c1-2 2-6 2-9-4 0-7 0-10 1l-2 1c-1 1-2 2-3 4v2c0 2 0 2 1 4 1 1 3 1 4 1zm-77-16h15c0-2 1-6-3-7-1-1-4-1-6-1-2 1-3 2-4 3 0 0-1 0-1 1s-1 3-1 4z" fill="#b2121a"/></svg>