<svg width="39" height="25" viewBox="0 0 39 25" fill="none" xmlns="http://www.w3.org/2000/svg">
<path fill-rule="evenodd" clip-rule="evenodd" d="M37.8319 2.51092V21.8341C37.8319 23.1441 37.3952 23.7991 36.3035 23.7991H2.67904C1.58733 23.7991 1.04148 23.1441 0.932312 21.8341V2.62009C0.932312 1.31005 1.47816 0.655029 2.67904 0.655029L36.3035 0.7642C37.286 0.87337 37.941 1.31005 37.8319 2.51092Z" fill="#E4E4E4" stroke="#A9A6AA" stroke-width="0.924672"/>
<path d="M16.418 16.7917V10.1635C16.418 8.944 17.4067 7.95539 18.6263 7.95539L20.5833 7.95827C21.7993 7.9607 22.7838 8.94719 22.7838 10.1632V11.5741C22.7838 12.7936 21.7952 13.7824 20.5756 13.7824H17.8102" stroke="#939598" stroke-miterlimit="10" stroke-linecap="round" stroke-linejoin="round"/>
<path d="M23.3307 7.95445H24.1797C24.6802 7.95445 25.0859 8.36019 25.0859 8.8607V13.812" stroke="#939598" stroke-miterlimit="10" stroke-linecap="round" stroke-linejoin="round"/>
<path d="M24.9039 7.18738L24.5189 6.80236C24.4234 6.70688 24.4234 6.55198 24.5189 6.45645L24.9037 6.07173C24.9993 5.97605 25.1544 5.97605 25.25 6.07173L25.6348 6.45645C25.7303 6.55198 25.7303 6.70688 25.6348 6.80236L25.2498 7.18738C25.1543 7.28292 24.9994 7.28292 24.9039 7.18738Z" fill="#32BCAD"/>
<path d="M26.7145 7.95012H27.5564C27.9895 7.95012 28.4048 8.12214 28.711 8.42839L30.6802 10.3975C30.9353 10.6527 31.3488 10.6527 31.6039 10.3975L33.5659 8.43558C33.8721 8.12938 34.2875 7.95736 34.7206 7.95736H35.405" stroke="#939598" stroke-miterlimit="10" stroke-linecap="round" stroke-linejoin="round"/>
<path d="M26.7145 13.7688H27.5564C27.9895 13.7688 28.4048 13.5968 28.711 13.2905L30.6802 11.3214C30.9353 11.0663 31.3488 11.0663 31.6039 11.3214L33.5659 13.2833C33.8721 13.5895 34.2875 13.7616 34.7206 13.7616H35.405" stroke="#939598" stroke-miterlimit="10" stroke-linecap="round" stroke-linejoin="round"/>
<path d="M11.3988 15.0267C10.9763 15.0267 10.5789 14.8622 10.2801 14.5635L8.66479 12.9482C8.55143 12.8345 8.35372 12.8349 8.24036 12.9482L6.61913 14.5695C6.32033 14.8681 5.92295 15.0326 5.50039 15.0326H5.18208L7.22789 17.0784C7.86684 17.7173 8.90276 17.7173 9.54171 17.0784L11.5934 15.0267H11.3988Z" fill="#32BCAD"/>
<path d="M5.50039 9.31302C5.92295 9.31302 6.32033 9.4776 6.61909 9.77625L8.24031 11.3977C8.35707 11.5145 8.54773 11.515 8.66479 11.3976L10.2801 9.78213C10.5789 9.48347 10.9763 9.31895 11.3988 9.31895H11.5934L9.54171 7.26727C8.90276 6.62832 7.86684 6.62832 7.22789 7.26727L5.18214 9.31302H5.50039Z" fill="#32BCAD"/>
<path d="M13.2904 11.0159L12.0506 9.77607C12.0233 9.78701 11.9937 9.79385 11.9625 9.79385H11.3988C11.1074 9.79385 10.8221 9.91203 10.6162 10.1181L9.00084 11.7334C8.84974 11.8846 8.65112 11.9603 8.45266 11.9603C8.25405 11.9603 8.05558 11.8846 7.90443 11.7336L6.28305 10.1122C6.0771 9.90615 5.79186 9.78798 5.5004 9.78798H4.80725C4.77772 9.78798 4.75007 9.78099 4.72398 9.77116L3.47921 11.0159C2.84026 11.6548 2.84026 12.6907 3.47921 13.3297L4.72393 14.5745C4.75001 14.5646 4.77772 14.5576 4.80725 14.5576H5.5004C5.79186 14.5576 6.0771 14.4395 6.28305 14.2334L7.90428 12.6122C8.19731 12.3194 8.70811 12.3193 9.00084 12.6123L10.6162 14.2275C10.8221 14.4336 11.1074 14.5518 11.3988 14.5518H11.9625C11.9938 14.5518 12.0233 14.5586 12.0506 14.5695L13.2904 13.3297C13.9294 12.6907 13.9294 11.6548 13.2904 11.0159Z" fill="#32BCAD"/>
<path d="M18.101 16.2284C18.0095 16.2284 17.903 16.2504 17.7977 16.2747V16.6786C17.8707 16.7053 17.9539 16.7181 18.0339 16.7181C18.2364 16.7181 18.3325 16.6498 18.3325 16.4714C18.3325 16.3036 18.2538 16.2284 18.101 16.2284ZM17.7293 16.9785V16.1798H17.7849L17.7907 16.2146C17.8845 16.1925 18.0141 16.1636 18.1067 16.1636C18.182 16.1636 18.2538 16.175 18.3139 16.2237C18.3834 16.2805 18.4054 16.3719 18.4054 16.4714C18.4054 16.5757 18.3707 16.6741 18.2758 16.7284C18.2097 16.7655 18.1206 16.7805 18.0408 16.7805C17.9585 16.7805 17.8799 16.7677 17.7977 16.7435V16.9785H17.7293Z" fill="#939598"/>
<path d="M18.9139 16.226C18.7113 16.226 18.6211 16.2897 18.6211 16.468C18.6211 16.6405 18.7102 16.7181 18.9139 16.7181C19.1153 16.7181 19.2056 16.6555 19.2056 16.4772C19.2056 16.3048 19.1165 16.226 18.9139 16.226ZM19.1743 16.7181C19.1072 16.7666 19.017 16.7805 18.9139 16.7805C18.8086 16.7805 18.7183 16.7654 18.6523 16.7181C18.5782 16.666 18.5481 16.5802 18.5481 16.4726C18.5481 16.3661 18.5782 16.2794 18.6523 16.226C18.7183 16.1786 18.8086 16.1636 18.9139 16.1636C19.0181 16.1636 19.1072 16.1786 19.1743 16.226C19.2497 16.2794 19.2785 16.3661 19.2785 16.4714C19.2785 16.5791 19.2485 16.666 19.1743 16.7181" fill="#939598"/>
<path d="M20.1333 16.7643L19.9075 16.2793H19.9029L19.6806 16.7643H19.6193L19.3785 16.1797H19.4537L19.654 16.6704H19.6587L19.8763 16.1797H19.9388L20.1622 16.6704H20.1669L20.3625 16.1797H20.4354L20.1946 16.7643H20.1333Z" fill="#939598"/>
<path d="M20.872 16.2248C20.6845 16.2248 20.6208 16.3082 20.6092 16.4286H21.1348C21.129 16.2956 21.0607 16.2248 20.872 16.2248ZM20.8697 16.7805C20.7574 16.7805 20.6845 16.7643 20.6266 16.7156C20.5583 16.6566 20.5352 16.571 20.5352 16.4726C20.5352 16.3788 20.5664 16.2793 20.644 16.2226C20.7088 16.1774 20.7887 16.1636 20.872 16.1636C20.9473 16.1636 21.0341 16.1716 21.1058 16.2203C21.1903 16.2769 21.2066 16.3766 21.2066 16.4899H20.6069C20.6092 16.6103 20.6486 16.7169 20.8755 16.7169C20.9832 16.7169 21.0839 16.6994 21.1777 16.6833V16.7446C21.0804 16.762 20.9727 16.7805 20.8697 16.7805Z" fill="#939598"/>
<path d="M21.4026 16.7643V16.1797H21.4582L21.464 16.2145C21.5878 16.1832 21.6457 16.1635 21.7545 16.1635H21.7626V16.2284H21.7464C21.6549 16.2284 21.5994 16.241 21.4709 16.2746V16.7643H21.4026Z" fill="#939598"/>
<path d="M22.1593 16.2248C21.9718 16.2248 21.9081 16.3082 21.8965 16.4286H22.422C22.4163 16.2956 22.348 16.2248 22.1593 16.2248ZM22.157 16.7805C22.0447 16.7805 21.9718 16.7643 21.9139 16.7156C21.8455 16.6566 21.8224 16.571 21.8224 16.4726C21.8224 16.3788 21.8537 16.2793 21.9313 16.2226C21.9961 16.1774 22.076 16.1636 22.1593 16.1636C22.2346 16.1636 22.3214 16.1716 22.3931 16.2203C22.4776 16.2769 22.4939 16.3766 22.4939 16.4899H21.8942C21.8965 16.6103 21.9359 16.7169 22.1627 16.7169C22.2704 16.7169 22.3711 16.6994 22.4649 16.6833V16.7446C22.3676 16.762 22.26 16.7805 22.157 16.7805Z" fill="#939598"/>
<path d="M23.2421 16.2655C23.1692 16.2388 23.0858 16.226 23.006 16.226C22.8033 16.226 22.7072 16.2944 22.7072 16.4726C22.7072 16.6416 22.786 16.7156 22.9387 16.7156C23.0302 16.7156 23.1367 16.6936 23.2421 16.6705V16.2655ZM23.2548 16.7644L23.249 16.7296C23.1553 16.7515 23.0256 16.7805 22.933 16.7805C22.8578 16.7805 22.786 16.7701 22.7258 16.7203C22.6563 16.6635 22.6343 16.5722 22.6343 16.4726C22.6343 16.3685 22.6691 16.27 22.764 16.2167C22.83 16.1786 22.9191 16.1636 23.0001 16.1636C23.0812 16.1636 23.1598 16.1775 23.2421 16.2006V15.9332H23.3104V16.7644H23.2548Z" fill="#939598"/>
<path d="M24.3118 16.2284C24.2203 16.2284 24.1138 16.2504 24.0085 16.2747V16.6775C24.0826 16.7053 24.1648 16.7181 24.2447 16.7181C24.4472 16.7181 24.5433 16.6498 24.5433 16.4714C24.5433 16.3036 24.4646 16.2284 24.3118 16.2284ZM24.4866 16.7284C24.4206 16.7655 24.3315 16.7805 24.2516 16.7805C24.1648 16.7805 24.078 16.7655 23.9899 16.7365L23.9865 16.7644H23.9402V15.9332H24.0085V16.2121C24.1022 16.1914 24.2284 16.1636 24.3175 16.1636C24.3928 16.1636 24.4646 16.1751 24.5248 16.2237C24.5942 16.2805 24.6162 16.3719 24.6162 16.4714C24.6162 16.5757 24.5814 16.6741 24.4866 16.7284Z" fill="#939598"/>
<path d="M24.7068 16.9888V16.9252C24.7404 16.9287 24.7717 16.9311 24.7937 16.9311C24.8782 16.9311 24.9291 16.9066 24.9766 16.8106L24.9986 16.7643L24.693 16.1797H24.7717L25.0334 16.6844H25.038L25.2868 16.1797H25.3644L25.0356 16.8361C24.9755 16.9553 24.9106 16.9946 24.7913 16.9946C24.7647 16.9946 24.7358 16.9923 24.7068 16.9888Z" fill="#939598"/>
<path d="M26.3057 16.4309H26.0789V16.6358H26.3068C26.4631 16.6358 26.5221 16.6183 26.5221 16.5328C26.5221 16.4412 26.4412 16.4309 26.3057 16.4309ZM26.264 16.0986H26.0789V16.307H26.2652C26.4192 16.307 26.4805 16.2885 26.4805 16.2017C26.4805 16.1091 26.4029 16.0986 26.264 16.0986V16.0986ZM26.616 16.7088C26.5326 16.762 26.4319 16.7643 26.2478 16.7643H25.9017V15.9713H26.2397C26.3983 15.9713 26.4955 15.9736 26.5766 16.0223C26.6345 16.0571 26.6576 16.1103 26.6576 16.1797C26.6576 16.263 26.6229 16.3186 26.5326 16.3557V16.3602C26.6345 16.3835 26.7005 16.4356 26.7005 16.5478C26.7005 16.6242 26.6727 16.674 26.616 16.7088Z" fill="#939598"/>
<path d="M27.393 16.5189C27.3246 16.5131 27.2552 16.5097 27.1823 16.5097C27.063 16.5097 27.0214 16.534 27.0214 16.5883C27.0214 16.6393 27.0561 16.6671 27.1475 16.6671C27.2239 16.6671 27.3154 16.6498 27.393 16.6323V16.5189ZM27.4276 16.7644L27.423 16.7296C27.3235 16.754 27.2078 16.7805 27.1058 16.7805C27.0433 16.7805 26.9762 16.7724 26.9287 16.7376C26.8848 16.7064 26.8639 16.6555 26.8639 16.5964C26.8639 16.5304 26.8929 16.4691 26.9623 16.4379C27.0237 16.4089 27.1058 16.4066 27.1811 16.4066C27.2425 16.4066 27.3246 16.4101 27.393 16.4147V16.4043C27.393 16.3129 27.3327 16.2828 27.1684 16.2828C27.1047 16.2828 27.0271 16.2861 26.9531 16.2931V16.1751C27.0352 16.1682 27.1278 16.1636 27.2043 16.1636C27.3061 16.1636 27.4115 16.1717 27.4763 16.2179C27.5434 16.2655 27.5562 16.3315 27.5562 16.4182V16.7644H27.4276Z" fill="#939598"/>
<path d="M28.3194 16.7643V16.4412C28.3194 16.3348 28.265 16.2966 28.1677 16.2966C28.096 16.2966 28.0057 16.3151 27.9293 16.3337V16.7643H27.7661V16.1797H27.8992L27.9049 16.2167C28.008 16.1902 28.1226 16.1635 28.2176 16.1635C28.2893 16.1635 28.3622 16.1739 28.4178 16.2237C28.464 16.2654 28.4815 16.3231 28.4815 16.4066V16.7643H28.3194Z" fill="#939598"/>
<path d="M28.9426 16.7805C28.8674 16.7805 28.7851 16.7701 28.7249 16.7192C28.6532 16.6613 28.6323 16.5699 28.6323 16.4714C28.6323 16.3788 28.6624 16.2781 28.7516 16.2215C28.8245 16.1739 28.9148 16.1636 29.0086 16.1636C29.0757 16.1636 29.1417 16.1682 29.2146 16.1751V16.3001C29.1555 16.2944 29.0849 16.2897 29.0282 16.2897C28.8731 16.2897 28.8001 16.3384 28.8001 16.4726C28.8001 16.5988 28.8546 16.6532 28.9819 16.6532C29.0559 16.6532 29.1428 16.6393 29.2274 16.6231V16.7435C29.1359 16.7621 29.0363 16.7805 28.9426 16.7805Z" fill="#939598"/>
<path d="M29.7095 16.2861C29.5543 16.2861 29.486 16.3349 29.486 16.468C29.486 16.6011 29.5531 16.6579 29.7095 16.6579C29.8634 16.6579 29.9305 16.6103 29.9305 16.4772C29.9305 16.3441 29.8646 16.2861 29.7095 16.2861ZM29.9896 16.7192C29.9178 16.7677 29.8241 16.7805 29.7095 16.7805C29.5925 16.7805 29.4988 16.7665 29.4282 16.7192C29.3471 16.6659 29.3182 16.578 29.3182 16.4726C29.3182 16.3672 29.3471 16.2781 29.4282 16.2248C29.4988 16.1774 29.5925 16.1636 29.7095 16.1636C29.8252 16.1636 29.9178 16.1774 29.9896 16.2248C30.0706 16.2781 30.0984 16.3672 30.0984 16.4714C30.0984 16.5768 30.0695 16.6659 29.9896 16.7192" fill="#939598"/>
<path d="M31.0407 16.7805C30.9424 16.7805 30.8359 16.7644 30.7559 16.6983C30.6611 16.6195 30.6321 16.4981 30.6321 16.3672C30.6321 16.2504 30.6692 16.1115 30.793 16.0304C30.8891 15.968 31.0083 15.9552 31.1287 15.9552C31.2167 15.9552 31.307 15.961 31.4054 15.9691V16.1115C31.3209 16.1045 31.2167 16.0987 31.1357 16.0987C30.9099 16.0987 30.8138 16.1844 30.8138 16.3672C30.8138 16.5537 30.903 16.637 31.0697 16.637C31.1784 16.637 31.3 16.615 31.4227 16.5895V16.7307C31.3 16.7551 31.1715 16.7805 31.0407 16.7805Z" fill="#939598"/>
<path d="M31.9024 16.2677C31.7669 16.2677 31.7148 16.3164 31.7044 16.4055H32.098C32.0933 16.3106 32.0378 16.2677 31.9024 16.2677ZM31.8781 16.7805C31.782 16.7805 31.6951 16.769 31.6303 16.7156C31.5609 16.6579 31.5365 16.571 31.5365 16.4714C31.5365 16.3823 31.5655 16.2828 31.6466 16.2248C31.7183 16.1739 31.8098 16.1636 31.9024 16.1636C31.9857 16.1636 32.0841 16.1728 32.1558 16.2226C32.2496 16.2886 32.2578 16.3905 32.2589 16.5108H31.7032C31.7067 16.6 31.7542 16.6579 31.9185 16.6579C32.0204 16.6579 32.1339 16.6428 32.2299 16.6277V16.7423C32.1176 16.7609 31.995 16.7805 31.8781 16.7805Z" fill="#939598"/>
<path d="M32.985 16.7643V16.4412C32.985 16.3348 32.9307 16.2966 32.8334 16.2966C32.7617 16.2966 32.6714 16.3151 32.595 16.3337V16.7643H32.4317V16.1797H32.5649L32.5706 16.2167C32.6737 16.1902 32.7882 16.1635 32.8832 16.1635C32.955 16.1635 33.0279 16.1739 33.0835 16.2237C33.1298 16.2654 33.1471 16.3231 33.1471 16.4066V16.7643H32.985Z" fill="#939598"/>
<path d="M33.6117 16.7805C33.533 16.7805 33.4612 16.7585 33.4219 16.6971C33.393 16.6555 33.379 16.5988 33.379 16.5201V16.3012H33.261V16.1798H33.379L33.3965 16.0026H33.5411V16.1798H33.7714V16.3012H33.5411V16.4889C33.5411 16.534 33.5446 16.5722 33.5573 16.6C33.5747 16.6393 33.6128 16.6543 33.6638 16.6543C33.702 16.6543 33.7483 16.6485 33.7807 16.6428V16.7596C33.7275 16.7701 33.6661 16.7805 33.6117 16.7805Z" fill="#939598"/>
<path d="M33.9307 16.7643V16.1797H34.0638L34.0697 16.2167C34.1773 16.1866 34.2571 16.1635 34.359 16.1635C34.3636 16.1635 34.3706 16.1635 34.3799 16.1646V16.3035C34.3613 16.3024 34.3393 16.3024 34.3232 16.3024C34.2432 16.3024 34.1831 16.3116 34.0939 16.3326V16.7643H33.9307Z" fill="#939598"/>
<path d="M34.9732 16.5189C34.9049 16.5131 34.8355 16.5097 34.7625 16.5097C34.6433 16.5097 34.6016 16.534 34.6016 16.5883C34.6016 16.6393 34.6364 16.6671 34.7278 16.6671C34.8042 16.6671 34.8957 16.6498 34.9732 16.6323V16.5189ZM35.0079 16.7644L35.0033 16.7296C34.9037 16.754 34.788 16.7805 34.6861 16.7805C34.6236 16.7805 34.5564 16.7724 34.509 16.7376C34.4651 16.7064 34.4442 16.6555 34.4442 16.5964C34.4442 16.5304 34.4731 16.4691 34.5426 16.4379C34.6039 16.4089 34.6861 16.4066 34.7614 16.4066C34.8227 16.4066 34.9049 16.4101 34.9732 16.4147V16.4043C34.9732 16.3129 34.913 16.2828 34.7486 16.2828C34.685 16.2828 34.6074 16.2861 34.5333 16.2931V16.1751C34.6155 16.1682 34.7081 16.1636 34.7845 16.1636C34.8864 16.1636 34.9918 16.1717 35.0566 16.2179C35.1237 16.2655 35.1364 16.3315 35.1364 16.4182V16.7644H35.0079Z" fill="#939598"/>
<path d="M35.3463 15.9332H35.5096V16.7643H35.3463V15.9332Z" fill="#939598"/>
</svg>