<svg width="51" height="65" fill="none" xmlns="http://www.w3.org/2000/svg"><g filter="url(#a)"><path fill="#fff" d="M1 25h49v38H1z"/></g><g filter="url(#b)"><circle cx="25.5" cy="24.5" r="24.5" fill="#fff"/></g><circle cx="25.5" cy="24.5" r="12.5" fill="#0C874B"/><path d="M13.083 57.943h-4.29L7.869 60h-.847l3.52-7.7h.803l3.52 7.7h-.858l-.924-2.057Zm-.297-.66-1.848-4.136-1.848 4.136h3.696Zm6.554-1.254c.506.11.894.33 1.166.66.278.323.418.74.418 1.254 0 .66-.246 1.17-.737 1.529-.484.352-1.203.528-2.156.528h-3.542v-7.7h3.322c.858 0 1.521.172 1.99.517.477.345.716.832.716 1.463 0 .425-.107.788-.32 1.089a1.86 1.86 0 0 1-.857.66Zm-4.037-3.058v2.794h2.453c.623 0 1.103-.117 1.44-.352.338-.242.507-.59.507-1.045 0-.455-.169-.8-.506-1.034-.338-.242-.818-.363-1.441-.363h-2.453Zm2.717 6.358c.69 0 1.21-.117 1.562-.352.352-.235.528-.601.528-1.1 0-.96-.697-1.441-2.09-1.441h-2.717v2.893h2.717Zm6.456.737c-.763 0-1.452-.169-2.068-.506a3.768 3.768 0 0 1-1.441-1.397 3.976 3.976 0 0 1-.517-2.013c0-.74.172-1.408.517-2.002a3.723 3.723 0 0 1 1.452-1.408c.616-.337 1.305-.506 2.068-.506.572 0 1.1.095 1.584.286.484.19.894.47 1.232.836l-.517.517c-.602-.609-1.36-.913-2.277-.913-.609 0-1.163.14-1.661.418-.499.279-.891.66-1.177 1.144a3.204 3.204 0 0 0-.418 1.628c0 .601.14 1.144.418 1.628.286.484.678.865 1.177 1.144a3.346 3.346 0 0 0 1.66.418c.925 0 1.684-.308 2.278-.924l.517.517a3.376 3.376 0 0 1-1.243.847 4.284 4.284 0 0 1-1.584.286Zm6.117 0a4.297 4.297 0 0 1-2.08-.506 3.827 3.827 0 0 1-1.451-1.408c-.345-.594-.517-1.261-.517-2.002 0-.74.172-1.408.517-2.002a3.746 3.746 0 0 1 1.452-1.397 4.223 4.223 0 0 1 2.079-.517c.762 0 1.448.169 2.057.506.616.337 1.1.807 1.452 1.408.352.594.528 1.261.528 2.002a3.91 3.91 0 0 1-.528 2.013 3.746 3.746 0 0 1-1.452 1.397c-.609.337-1.294.506-2.057.506Zm0-.726c.608 0 1.159-.136 1.65-.407.491-.279.876-.66 1.155-1.144a3.264 3.264 0 0 0 .418-1.639c0-.601-.14-1.144-.418-1.628a2.937 2.937 0 0 0-1.155-1.144 3.285 3.285 0 0 0-1.65-.418c-.609 0-1.163.14-1.661.418-.491.271-.88.653-1.166 1.144a3.203 3.203 0 0 0-.418 1.628c0 .601.14 1.148.418 1.639.286.484.675.865 1.166 1.144a3.418 3.418 0 0 0 1.66.407ZM42.8 52.3V60h-.78v-6.16l-3.026 5.181h-.385l-3.025-5.148V60h-.78v-7.7h.67l3.344 5.709L42.13 52.3h.671ZM13.872 11.122l-1.352 1.26 1.03 1.106 1.571-1.463.314.336-1.983 1.847-2.908-3.12 1.962-1.828.315.339-1.55 1.443.935 1.004 1.353-1.26.313.336ZM15.388 7.479l2.85 2.437-.379-3.73.647-.338 1.977 3.779-.498.26-.77-1.471-.785-1.613.361 3.71-.381.2-2.836-2.405.877 1.555.77 1.472-.499.26-1.978-3.78.644-.336ZM21.81 7.81l.354 1.631-.55.12-.907-4.168 1.538-.335c.456-.099.838-.06 1.146.117.31.176.507.456.59.84.089.404.03.744-.176 1.018-.205.273-.543.46-1.014.563l-.982.214Zm-.099-.45.988-.215c.294-.064.504-.181.63-.353.127-.173.161-.39.104-.652-.053-.248-.175-.43-.364-.545-.189-.114-.42-.145-.694-.091l-1.02.222.356 1.634ZM27.456 7.328l-1.001-.027-.046 1.725-.566-.015.115-4.264 1.411.038c.48.013.847.132 1.099.357.253.226.375.548.363.966a1.143 1.143 0 0 1-.235.688c-.148.193-.35.335-.61.426l.954 1.837-.001.035-.603-.016-.88-1.75Zm-.989-.487.864.024c.28.007.503-.06.67-.2a.73.73 0 0 0 .265-.573c.007-.263-.066-.467-.22-.612-.153-.145-.378-.222-.674-.232l-.861-.023-.044 1.616ZM32.934 8.224l-1.783-.489-.4 1.458 2.071.568-.122.444-2.613-.717 1.129-4.114 2.585.71-.122.446-2.043-.56-.363 1.321 1.783.49-.122.443ZM36.115 9.915c-.353-.357-.578-.676-.672-.96a.984.984 0 0 1 .079-.814 1.03 1.03 0 0 1 .756-.531c.342-.062.702.012 1.077.222.256.142.456.319.6.53.146.21.225.433.237.668.014.236-.037.457-.152.664l-.494-.276c.126-.225.153-.442.081-.65-.07-.209-.237-.387-.498-.532-.242-.135-.461-.187-.658-.156a.608.608 0 0 0-.449.33.555.555 0 0 0-.023.493c.071.177.237.395.497.654.262.26.45.491.566.694.117.202.179.397.184.583.008.188-.042.376-.147.565a1 1 0 0 1-.759.53c-.336.05-.701-.036-1.095-.256a2.022 2.022 0 0 1-.635-.545 1.403 1.403 0 0 1-.289-.691 1.131 1.131 0 0 1 .145-.681l.494.275a.74.74 0 0 0-.05.674c.095.223.28.412.559.567.26.144.487.202.684.174a.59.59 0 0 0 .449-.317.575.575 0 0 0 .044-.53c-.072-.171-.249-.4-.53-.684ZM40.11 14.142l-1.308-1.218-1.052.54-.425-.395 4.1-2.01.36.335-1.713 4.234-.423-.394.461-1.092Zm-.868-1.441 1.061.989.829-1.955-1.89.966ZM9.776 37.439l-1.236-1.29-1.082.48-.401-.419 4.207-1.775.34.356-1.951 4.129-.4-.417.523-1.064Zm-.785-1.488 1.004 1.047.938-1.905-1.942.858ZM13.14 38.9c-.32-.388-.513-.727-.581-1.018a.984.984 0 0 1 .154-.804c.19-.277.458-.43.803-.458.347-.03.697.078 1.051.322.242.165.425.36.549.583.126.224.183.453.174.688-.009.236-.08.451-.214.646l-.466-.32c.147-.213.193-.426.141-.64-.05-.215-.2-.407-.446-.576-.228-.157-.442-.23-.64-.217a.608.608 0 0 0-.478.287.554.554 0 0 0-.07.49c.055.181.2.414.435.696.236.283.402.532.498.744.098.212.141.411.13.598-.01.187-.077.37-.2.549a1 1 0 0 1-.805.456c-.339.018-.695-.1-1.066-.356a2.02 2.02 0 0 1-.582-.603 1.402 1.402 0 0 1-.223-.715c-.002-.238.067-.46.208-.664l.466.32a.74.74 0 0 0-.113.666c.074.23.242.436.504.617.245.168.467.247.666.237a.59.59 0 0 0 .476-.274.575.575 0 0 0 .092-.523c-.055-.178-.21-.421-.464-.731ZM17.188 40.919c-.39-.315-.65-.608-.775-.879a.983.983 0 0 1-.012-.818c.13-.31.361-.514.692-.612.334-.099.7-.065 1.096.101.27.114.488.267.655.46.169.194.272.407.31.639.04.232.014.458-.077.676l-.522-.22c.1-.237.103-.455.008-.654-.093-.2-.278-.358-.554-.474-.255-.107-.479-.135-.67-.082a.608.608 0 0 0-.41.378.554.554 0 0 0 .03.493c.092.167.28.365.568.594.29.23.502.439.639.627.14.188.222.374.248.56.028.185 0 .377-.084.577a1 1 0 0 1-.695.61c-.329.087-.7.043-1.117-.132a2.02 2.02 0 0 1-.691-.471 1.401 1.401 0 0 1-.364-.655 1.132 1.132 0 0 1 .069-.693l.52.22a.74.74 0 0 0 .026.674c.119.21.325.378.618.501.274.115.507.148.7.097a.59.59 0 0 0 .41-.364.575.575 0 0 0-.015-.531c-.09-.163-.291-.37-.603-.622ZM23.593 42.343c-.076.411-.211.758-.406 1.04a1.6 1.6 0 0 1-.716.592 1.644 1.644 0 0 1-.932.079 1.637 1.637 0 0 1-.835-.404 1.657 1.657 0 0 1-.468-.804 2.557 2.557 0 0 1-.024-1.086l.055-.302c.075-.404.21-.747.407-1.03.197-.284.439-.484.724-.6.288-.118.597-.147.927-.086.337.062.617.198.843.408.228.209.382.48.464.815.081.333.085.704.01 1.113l-.05.265Zm-.5-.372c.09-.497.06-.897-.09-1.199-.15-.304-.406-.489-.765-.555a.997.997 0 0 0-.9.249c-.25.228-.42.578-.512 1.05l-.057.308c-.089.482-.058.88.093 1.194.153.312.408.5.763.566.357.066.658-.013.901-.237.244-.225.414-.58.509-1.065l.057-.31ZM28.482 42.768c-.038.453-.193.807-.465 1.063-.271.253-.639.388-1.104.404-.503.017-.913-.15-1.23-.5-.315-.351-.483-.83-.503-1.434l-.014-.41a2.445 2.445 0 0 1 .175-1.053c.132-.305.325-.543.58-.711.253-.171.551-.263.893-.274.453-.016.82.099 1.102.343.282.243.453.587.513 1.032l-.565.02c-.06-.338-.175-.58-.344-.727-.168-.147-.398-.215-.69-.206-.36.013-.637.155-.833.428-.194.272-.282.653-.266 1.143l.014.413c.016.462.125.827.328 1.094a.938.938 0 0 0 .825.382c.312-.01.549-.089.71-.235.163-.148.266-.4.308-.752l.566-.02ZM30.773 43.533l-.55.12-.913-4.166.55-.12.913 4.166ZM34.659 40.578l-1.648.692.061 1.182-.535.224-.15-4.563.454-.19 3.156 3.3-.532.223-.806-.868Zm-1.67.2 1.336-.562-1.442-1.558.105 2.12ZM37.269 40.24l-2.417-3.516.992-.682c.306-.21.623-.328.95-.355.329-.026.642.042.94.204.3.16.563.402.787.725l.154.224c.228.332.364.667.407 1.005.044.337-.007.654-.154.951a2.054 2.054 0 0 1-.686.775l-.973.668Zm-1.691-3.453 1.893 2.755.488-.336c.357-.245.559-.547.604-.905.047-.36-.07-.745-.353-1.155l-.141-.205c-.274-.4-.582-.644-.921-.735-.34-.094-.683-.024-1.03.21l-.54.371ZM41.891 34.655l-1.236 1.29.526 1.06-.401.42-1.953-4.128.34-.355 4.21 1.773-.4.416-1.086-.476Zm-1.453.848 1.003-1.047-1.943-.856.94 1.903Z" fill="#0C874B"/><path d="M23.184 30.445a.875.875 0 1 0 0-1.75.875.875 0 0 0 0 1.75ZM28.5 30.445a.875.875 0 1 0 0-1.75.875.875 0 0 0 0 1.75ZM30.864 20.088a.388.388 0 0 0-.299-.143h-8.097l.253.777h7.335l-1.039 4.667h-5.833l-1.777-5.627a.389.389 0 0 0-.257-.253l-1.594-.49a.39.39 0 0 0-.23.747l1.396.427 1.785 5.64-.638.52-.05.05a1.034 1.034 0 0 0-.031 1.32 1.07 1.07 0 0 0 .879.388h6.49a.388.388 0 1 0 0-.778h-6.552a.262.262 0 0 1-.218-.388l.937-.778h6.004a.389.389 0 0 0 .39-.304l1.232-5.444a.39.39 0 0 0-.085-.33Z" fill="#fff"/><circle cx="7" cy="25" r="1" fill="#0C874B"/><circle cx="44" cy="25" r="1" fill="#0C874B"/><defs><filter id="a" x="0" y="25" width="51" height="40" filterUnits="userSpaceOnUse" color-interpolation-filters="sRGB"><feFlood flood-opacity="0" result="BackgroundImageFix"/><feColorMatrix in="SourceAlpha" values="0 0 0 0 0 0 0 0 0 0 0 0 0 0 0 0 0 0 127 0" result="hardAlpha"/><feOffset dy="1"/><feGaussianBlur stdDeviation=".5"/><feComposite in2="hardAlpha" operator="out"/><feColorMatrix values="0 0 0 0 0 0 0 0 0 0 0 0 0 0 0 0 0 0 0.1 0"/><feBlend in2="BackgroundImageFix" result="effect1_dropShadow_10:72"/><feBlend in="SourceGraphic" in2="effect1_dropShadow_10:72" result="shape"/></filter><filter id="b" x="0" y="0" width="51" height="51" filterUnits="userSpaceOnUse" color-interpolation-filters="sRGB"><feFlood flood-opacity="0" result="BackgroundImageFix"/><feColorMatrix in="SourceAlpha" values="0 0 0 0 0 0 0 0 0 0 0 0 0 0 0 0 0 0 127 0" result="hardAlpha"/><feOffset dy="1"/><feGaussianBlur stdDeviation=".5"/><feComposite in2="hardAlpha" operator="out"/><feColorMatrix values="0 0 0 0 0 0 0 0 0 0 0 0 0 0 0 0 0 0 0.1 0"/><feBlend in2="BackgroundImageFix" result="effect1_dropShadow_10:72"/><feBlend in="SourceGraphic" in2="effect1_dropShadow_10:72" result="shape"/></filter></defs></svg>