<svg xmlns="http://www.w3.org/2000/svg" xml:space="preserve" width="217.918" height="81.598" version="1.1" style="shape-rendering:geometricPrecision;text-rendering:geometricPrecision;image-rendering:optimizeQuality;fill-rule:evenodd;clip-rule:evenodd" viewBox="0 0 5766 2159" id="google-avaliacoes"><defs><style>#google-avaliacoes .str0{stroke:#3074f1;stroke-width:20}#google-avaliacoes .str1{stroke:#e73126;stroke-width:20}#google-avaliacoes .str2{stroke:#f7ac01;stroke-width:20}#google-avaliacoes .fil2{fill:#3074f1}#google-avaliacoes .fil0{fill:#4c73ef}#google-avaliacoes .fil3{fill:#e73126}#google-avaliacoes .fil8{fill:#fac917}#google-avaliacoes .fil5{fill:#fefefe}#google-avaliacoes .fil1{fill:#fff}#google-avaliacoes .fil7{fill:#fefefe;fill-rule:nonzero}</style></defs><g id="Camada_x0020_1"><g id="_807469547056"><path class="fil0" d="m1110 103 126-47c14-6 30-3 42 6l105 85c8 6 18 9 29 9l134-7c15 0 29 7 38 20l74 112c5 9 14 15 24 18l130 35c14 4 26 16 30 30l35 130c3 10 9 19 18 24l112 74c13 8 20 23 19 38l-6 134c0 11 3 21 9 29l85 105c9 12 12 28 6 42l-47 126c-4 9-4 20 0 30l47 126c6 14 3 29-6 41l-85 105c-6 8-9 19-9 29l6 134c1 15-6 30-19 38l-112 74c-9 6-15 14-18 24l-35 130c-4 15-16 26-30 30l-130 35c-10 3-19 9-24 18l-74 113c-9 12-23 19-38 19l-134-7c-11 0-21 3-29 10l-105 84c-12 9-28 12-42 6l-126-47c-9-4-20-4-30 0l-126 47c-14 6-30 3-41-6l-105-84c-8-7-19-10-29-10l-134 7c-15 0-30-7-38-19l-74-113c-6-9-14-15-24-18l-130-35c-15-4-26-15-30-30l-35-130c-3-10-9-18-18-24l-113-74c-12-8-20-23-19-38l7-134c0-10-3-21-10-29l-84-105c-9-12-12-27-7-41l48-126c4-10 4-21 0-30L70 940c-5-15-2-30 7-42l84-105c7-8 10-18 10-29l-7-134c0-15 7-30 19-38l113-74c9-5 15-14 18-24l35-130c4-14 15-26 30-30l130-35c10-3 18-9 24-18l74-112c8-13 23-20 38-20l134 7c10 0 21-3 29-10l105-84c11-9 27-12 41-6l126 47c10 4 21 4 30 0z"/><path class="fil0" d="M1416 1829c-590 0-1069-479-1069-1069 0-158 35-308 96-443l-64 17c-15 4-26 16-30 30l-35 130c-3 10-9 19-18 24l-113 74c-12 8-19 23-19 38l7 134c0 11-3 21-10 29L77 898c-9 12-12 28-7 42l48 126c4 9 4 20 0 30l-48 126c-5 14-2 29 7 41l84 105c7 8 10 18 10 29l-7 134c0 15 7 30 19 38l113 74c9 6 15 14 18 24l35 130c4 15 15 26 30 30l130 35c10 3 18 9 24 18l74 113c8 12 23 19 38 19l134-7c10 0 21 3 29 10l105 84c11 9 27 12 41 6l126-47c10-4 21-4 30 0l126 47c14 6 30 3 42-6l105-84c8-7 18-10 29-10l134 7c15 0 29-7 38-19l74-113c5-9 14-15 24-18l130-35c14-4 26-15 30-30l17-64c-135 61-285 96-443 96z"/><circle class="fil1" cx="1095" cy="1081" r="820"/></g><g id="_807669248560"><path class="fil2 str0" d="m698 968 30-35c-19-18-45-32-80-40-30-4-57-3-82 3-22 7-39 17-55 28-18 13-32 30-43 49-10 15-17 32-20 53-3 13-3 27-3 41 1 15 3 29 9 43 5 16 13 30 22 44 8 10 16 19 25 27 12 11 25 19 39 25 14 7 27 12 42 14 18 4 35 5 53 3 13-2 24-5 34-9 12-5 23-10 33-16 13-9 24-19 35-30 7-10 13-20 18-31 4-10 7-20 10-30 2-9 3-17 3-26l-1-40H613v46h109l-1 9c-1 6-3 11-4 17-2 6-5 11-8 16s-6 9-10 14c-3 2-6 6-9 8-5 5-10 8-15 11-6 3-12 6-19 8-8 4-17 6-26 7l-29 1c-14-2-28-7-40-13-10-5-19-11-27-18-10-8-18-17-24-28-5-8-9-18-12-27-3-7-4-15-4-23-1-10-2-20 1-29 1-8 3-16 5-24 4-11 9-22 16-30 11-16 33-33 51-41 53-23 87-3 131 23z"/><path class="fil3 str1" d="M995 1085c3 13 4 25 4 37-2 21-9 39-20 56-6 8-12 15-20 22-39 33-98 31-137-1-9-7-15-15-20-23-8-10-13-21-16-33-4-13-5-33-2-46 2-7 3-15 7-22 6-14 13-25 22-34 10-10 20-17 31-23 60-28 133 4 151 67z"/><path class="fil1 str1" d="M876 1053c84-20 110 116 19 128-13 1-24-2-33-7-26-18-38-49-29-80 7-19 22-36 43-41z"/><path class="fil4 str2" d="M1228 1083c3 13 4 25 4 37-2 20-9 39-20 56-6 8-12 15-20 22-39 33-98 31-137-1-9-8-15-15-20-23-7-10-13-21-16-33-4-13-5-33-2-46 2-7 3-15 7-22 6-14 13-25 22-35 10-9 20-16 31-22 60-28 133 3 151 67z" style="fill:#f6ab00"/><path class="fil1 str2" d="M1109 1051c84-21 110 116 19 128-13 1-23-2-33-7-26-18-38-49-29-80 7-19 22-36 43-41z"/><path class="fil2 str0" d="M1410 1032v-17h45l-1 211c-3 39-25 75-63 87-18 5-36 6-54 4-15-2-28-7-40-14-19-14-27-26-38-47l40-18 11 18c7 8 15 14 24 18 18 5 35 2 51-5 12-9 19-20 24-32 2-13 3-26 2-39-57 50-133 14-155-44-5-14-8-28-7-42 0-9 1-19 4-28 6-13 13-26 22-38 12-13 25-23 40-30 27-14 60-11 84 9l11 7z"/><path class="fil5 str0" d="M1366 1051c11 3 21 8 28 15s12 14 15 22c4 11 5 21 6 31-2 20-8 35-23 48-10 9-21 13-32 14-19 0-31-6-41-15-45-43-16-125 47-115z"/><path class="fil6 str3" style="fill:#239a40;stroke:#249b41;stroke-width:20" d="m1487 900 47 1v315l-47-1z"/><g><path class="fil3 str1" d="m1742 1092-134 56c14 30 42 38 72 29 8-3 16-7 23-13l9-14 36 24c-20 26-43 45-78 48-27 0-44-3-67-17-11-7-21-16-29-28-7-11-13-22-16-34-6-30-5-57 12-84 31-50 97-69 144-29 9 8 15 16 20 23 7 12 13 24 17 35l-9 4z"/><path class="fil5 str1" d="m1600 1113 96-41c-14-26-48-26-72-13-18 13-23 33-24 54z"/></g></g><path class="fil0 str4" style="stroke:#4c73ef;stroke-width:20" d="m1882 514 3812 2-710 1151-3107-17 79-446 26-232-47-217z"/><path class="fil7" d="m2684 1014 94-247h36l101 247h-37l-29-75h-104l-27 75h-34zm71-102h84l-26-68c-8-21-14-38-18-52-3 16-8 32-13 48l-27 72z"/><path id="1" class="fil7" d="m2980 1014-68-179h33l38 107c4 11 8 23 11 36 3-10 7-21 12-34l39-109h31l-67 179h-29z"/><path id="2" class="fil7" d="M3220 991c-11 10-22 16-33 20-10 4-21 6-33 6-20 0-35-4-45-14-11-10-16-22-16-37 0-8 2-16 6-24 4-7 9-13 15-17 7-4 14-8 22-10 6-1 15-3 27-4 25-3 43-7 54-11 0-4 1-7 1-8 0-12-3-21-9-26-8-7-19-10-35-10-14 0-25 3-31 8-7 5-12 13-15 26l-30-4c3-13 7-23 13-31s15-14 27-18 25-6 41-6c15 0 28 2 37 5 10 4 17 8 21 14 5 5 8 12 10 20 1 6 1 15 1 28v41c0 28 1 45 2 53 1 7 4 15 8 22h-32c-3-7-5-14-6-23zm-2-67c-12 4-28 8-50 11-13 2-22 4-27 6-5 3-9 6-12 10-2 4-4 9-4 14 0 8 3 15 9 21 6 5 15 8 27 8s22-3 31-8 16-12 20-21c4-7 5-17 5-30l1-11z"/><path id="3" class="fil7" d="M3294 1014V767h30v247z"/><path id="4" class="fil7" d="M3371 801v-34h31v34h-31zm0 213V835h31v179h-31z"/><path id="5" class="fil7" d="M3565 991c-11 10-22 16-33 20-10 4-21 6-33 6-20 0-35-4-45-14-11-10-16-22-16-37 0-8 2-16 6-24 4-7 9-13 15-17 7-4 14-8 22-10 6-1 15-3 27-4 25-3 43-7 54-11v-8c0-12-2-21-8-26-8-7-19-10-35-10-14 0-25 3-31 8-7 5-12 13-16 26l-29-4c3-13 7-23 13-31s15-14 27-18 25-6 41-6c15 0 28 2 37 5 10 4 17 8 21 14 5 5 8 12 10 20 1 6 1 15 1 28v41c0 28 1 45 2 53 1 7 4 15 7 22h-31c-3-7-5-14-6-23zm-3-67c-11 4-27 8-49 11-13 2-22 4-27 6-5 3-9 6-12 10-2 4-4 9-4 14 0 8 3 15 9 21 6 5 15 8 27 8s22-3 31-8 16-12 20-21c4-7 5-17 5-30v-11z"/><path id="6" class="fil7" d="m3757 948 29 4c-3 21-11 37-25 48-13 12-30 17-49 17-24 0-44-8-59-24s-22-38-22-68c0-20 3-36 9-51 7-14 16-25 30-32 13-8 27-11 42-11 20 0 36 5 48 15 12 9 20 23 24 41l-30 5c-3-12-8-21-15-27s-15-9-26-9c-15 0-27 5-37 16-9 11-14 28-14 52s4 41 14 52c9 11 21 17 36 17 12 0 22-4 29-11 8-8 14-19 16-34zm-71 95 9-29h22l-6 18c10 1 17 4 22 8 5 5 7 10 7 16 0 9-4 16-12 22-8 7-20 10-37 10h-24l2-21h16c10 0 18-1 22-4s5-5 5-9c0-2 0-3-2-5-1-1-3-3-7-4-3-1-9-2-17-2z"/><path id="7" class="fil7" d="M3801 924c0-33 9-57 27-73 16-14 35-20 57-20 24 0 44 8 60 24s23 38 23 67c0 23-3 41-10 54s-17 23-30 30c-13 8-28 11-43 11-25 0-46-8-61-24-16-16-23-39-23-69zm31 0c0 23 5 40 15 51 10 12 22 18 38 18 15 0 27-6 37-18 10-11 15-28 15-52 0-22-5-39-15-50s-22-17-37-17c-16 0-28 6-38 17s-15 28-15 51zm-3-111c0-12 4-21 10-28s15-10 25-10c7 0 16 3 28 9 7 3 12 5 16 5 3 0 6-1 8-3s3-6 4-12h22c-1 13-4 23-10 29s-14 10-23 10c-7 0-16-4-28-10-7-4-13-6-16-6-4 0-7 1-10 4-2 3-3 7-3 12h-23z"/><path id="8" class="fil7" d="m4126 956 31 4c-5 18-14 32-27 42s-30 15-51 15c-26 0-47-8-62-24s-23-38-23-67c0-30 8-54 23-70 16-17 36-25 60-25s44 8 59 24 22 39 22 69v8h-133c1 19 7 35 17 45s22 16 37 16c11 0 20-3 28-9s14-15 19-28zm-99-49h99c-1-15-5-26-11-34-10-11-22-17-38-17-13 0-25 4-35 14-9 9-14 21-15 37z"/><path id="9" class="fil7" d="m4184 960 30-5c1 12 6 22 14 28 7 6 18 10 32 10s24-3 31-9 10-12 10-20c0-7-3-12-9-16-4-3-14-6-31-10-22-6-37-11-46-15s-15-10-20-17c-4-7-6-15-6-24 0-8 2-15 5-22 4-7 9-12 15-17 5-3 11-6 19-9 9-2 17-3 27-3 14 0 26 2 36 6 11 4 19 9 24 16s8 17 10 28l-29 4c-2-9-6-16-12-22-6-5-16-7-27-7-14 0-24 2-30 7-6 4-9 10-9 16 0 4 1 7 4 10 2 4 6 6 11 8 3 2 12 4 27 8 21 6 36 11 45 14 8 4 15 9 20 16s7 16 7 26-3 19-9 28-14 16-25 21-24 7-38 7c-23 0-41-4-53-14s-20-24-23-43z"/><path id="10" class="fil7" d="m2781 1399-95-247h35l64 179c5 15 10 28 13 41 4-14 8-27 13-41l67-179h33l-96 247h-34z"/><path id="11" class="fil7" d="m3040 1341 31 4c-5 18-14 32-27 42-13 11-30 16-51 16-26 0-47-8-62-25-16-16-23-38-23-67 0-30 8-54 23-70 15-17 36-25 60-25s43 8 59 24c15 17 22 40 22 69v8h-133c1 20 7 35 17 45 9 11 22 16 37 16 11 0 20-3 28-9s14-15 19-28zm-99-49h99c-1-15-5-26-11-34-10-11-22-17-38-17-14 0-25 5-35 14-9 9-14 22-15 37z"/><path id="12" class="fil7" d="M3109 1399v-179h27v27c7-12 14-21 20-25s12-6 19-6c11 0 21 3 31 10l-10 28c-8-5-15-7-22-7s-13 2-18 6-9 10-11 17c-4 11-5 22-5 35v94h-31z"/><path id="13" class="fil7" d="M3224 1186v-34h31v34h-31zm0 213v-179h31v179h-31z"/><path id="14" class="fil7" d="M3309 1399v-156h-27v-23h27v-17c0-18 4-32 11-41 8-10 20-14 37-14 11 0 21 1 31 4l-5 25c-6-1-12-1-17-1-10 0-17 2-21 6s-6 13-6 26v12h35v23h-35v156h-30zm88-213v-34h30v34h-30zm0 213v-179h30v179h-30z"/><path id="15" class="fil7" d="m3590 1333 30 4c-3 21-12 37-25 48-13 12-30 18-49 18-25 0-44-8-59-24s-23-39-23-69c0-19 4-36 10-51 6-14 16-25 29-32s27-11 43-11c19 0 35 5 47 15 13 10 21 24 24 42l-29 4c-3-12-8-21-15-27s-16-9-26-9c-15 0-28 5-37 16-10 11-15 28-15 52s5 42 14 52c10 11 22 17 36 17 12 0 22-4 30-11s13-19 15-34z"/><path id="16" class="fil7" d="M3763 1376c-12 10-22 17-33 21-10 4-21 6-33 6-20 0-35-5-46-15-10-9-16-22-16-36 0-9 2-17 6-24 4-8 10-13 16-18 7-4 14-7 22-10 6-1 15-3 27-4 24-3 43-7 54-11v-8c0-12-3-21-8-26-8-6-20-10-35-10-14 0-25 3-32 8-6 5-11 14-15 26l-29-4c2-13 7-23 13-31 6-7 15-13 27-18 12-4 25-6 41-6 15 0 27 2 37 5 9 4 17 9 21 14s8 12 9 21c1 5 2 14 2 28v40c0 28 1 46 2 53 1 8 4 15 7 22h-31c-3-7-5-14-6-23zm-3-67c-11 5-27 8-49 11-13 2-22 4-27 7-5 2-9 5-12 9-3 5-4 9-4 15 0 8 3 14 9 20 6 5 15 8 27 8s22-3 31-8 16-12 20-21c4-7 5-17 5-30v-11z"/><path id="17" class="fil7" d="M3953 1399v-23c-11 18-28 27-50 27-14 0-27-4-39-12s-21-19-28-33-10-30-10-49c0-17 3-33 9-48s15-26 27-33c12-8 25-12 40-12 11 0 20 2 28 7 9 4 16 10 21 18v-89h30v247h-28zm-96-89c0 22 5 39 15 51 9 11 21 17 34 17s25-6 34-16c9-11 14-28 14-50 0-24-5-42-14-54-10-11-22-17-35-17-14 0-25 6-34 17s-14 28-14 52z"/><path id="18" class="fil7" d="M4146 1376c-11 10-22 17-32 21-11 4-22 6-34 6-19 0-35-5-45-15-11-9-16-22-16-36 0-9 2-17 6-24 4-8 9-13 16-18 6-4 13-7 21-10 6-1 15-3 27-4 25-3 43-7 55-11v-8c0-12-3-21-9-26-8-6-19-10-34-10s-25 3-32 8-12 14-15 26l-30-4c3-13 7-23 13-31 7-7 16-13 27-18 12-4 26-6 41-6s28 2 37 5c10 4 17 9 22 14 4 5 7 12 9 21 1 5 1 14 1 28v40c0 28 1 46 2 53 2 8 4 15 8 22h-32c-3-7-5-14-6-23zm-2-67c-11 5-28 8-50 11-12 2-21 4-26 7-6 2-10 5-12 9-3 5-5 9-5 15 0 8 3 14 10 20 6 5 15 8 26 8 12 0 23-3 32-8s15-12 20-21c3-7 5-17 5-30v-11z"/><path id="19" class="fil7" d="m4209 1345 30-5c2 13 6 22 14 28 8 7 19 10 32 10 14 0 25-3 31-9 7-5 11-12 11-20 0-7-3-12-9-16-5-3-15-6-32-10-22-6-37-11-46-15-8-4-15-9-19-17-5-7-7-15-7-24 0-8 2-15 6-22 3-6 8-12 15-17 4-3 11-6 19-8 8-3 17-4 26-4 14 0 26 2 37 6 10 4 18 10 23 17s9 16 11 27l-30 5c-1-10-5-17-12-22-6-6-15-8-27-8-14 0-24 2-30 7-6 4-8 10-8 16 0 4 1 7 3 11 3 3 7 5 12 8 3 1 12 3 27 7 21 6 36 11 44 14 9 4 16 9 20 16 5 7 8 16 8 26s-3 20-9 29c-6 8-15 15-26 20s-23 8-37 8c-24 0-41-5-54-15-12-10-20-24-23-43z"/><g id="star.svg"><path class="fil8" d="m2149 1749 51 104 114 16-82 81 19 114-102-54-102 54 19-114-82-81 114-16z"/></g><g id="star.svg_0"><path class="fil8" d="m2787 1746 51 103 114 17-82 80 19 114-102-53-102 53 20-114-83-80 114-17z"/></g><g id="star.svg_1"><path class="fil8" d="m3407 1748 51 103 114 17-83 80 20 114-102-53-102 53 19-114-82-80 114-17z"/></g><g id="star.svg_2"><path class="fil8" d="m4075 1744 51 104 114 16-82 81 19 113-102-53-102 53 19-113-82-81 114-16z"/></g><g id="star.svg_3"><path class="fil8" d="m4732 1751 51 104 114 16-83 81 20 114-102-54-103 54 20-114-83-81 114-16z"/></g></g></svg>