<svg width="89" height="95" fill="none" xmlns="http://www.w3.org/2000/svg"><rect x=".5" y=".5" width="88" height="94" rx="7.5" fill="#fff" stroke="#C3C3C3"/><path d="M27.456 17.426h-7.81v2.21h5.539c-.274 3.1-2.978 4.423-5.53 4.423-3.265 0-6.115-2.45-6.115-5.886 0-3.346 2.717-5.924 6.122-5.924 2.628 0 4.176 1.598 4.176 1.598l1.623-1.603s-2.083-2.212-5.882-2.212c-4.837 0-8.579 3.895-8.579 8.101 0 4.123 3.52 8.142 8.703 8.142 4.558 0 7.894-2.979 7.894-7.383 0-.93-.141-1.467-.141-1.467Z" fill="#4885ED"/><path d="M33.854 15.825c-3.205 0-5.502 2.39-5.502 5.177 0 2.829 2.228 5.264 5.54 5.264 2.997 0 5.453-2.186 5.453-5.203 0-3.458-2.857-5.238-5.491-5.238Zm.032 2.05c1.576 0 3.069 1.216 3.069 3.174 0 1.917-1.487 3.167-3.077 3.167-1.746 0-3.124-1.334-3.124-3.182 0-1.808 1.36-3.159 3.132-3.159Z" fill="#DB3236"/><path d="M45.819 15.825c-3.205 0-5.502 2.39-5.502 5.177 0 2.829 2.228 5.264 5.54 5.264 2.997 0 5.453-2.186 5.453-5.203 0-3.458-2.857-5.238-5.491-5.238Zm.031 2.05c1.576 0 3.07 1.216 3.07 3.174 0 1.917-1.487 3.167-3.077 3.167-1.746 0-3.124-1.334-3.124-3.182 0-1.808 1.36-3.159 3.131-3.159Z" fill="#F4C20D"/><path d="M57.554 15.83c-2.941 0-5.253 2.458-5.253 5.216 0 3.143 2.68 5.226 5.203 5.226 1.56 0 2.389-.59 3.001-1.268v1.03c0 1.8-1.146 2.879-2.877 2.879-1.671 0-2.51-1.186-2.801-1.859l-2.103.84c.746 1.504 2.248 3.074 4.922 3.074 2.924 0 5.153-1.758 5.153-5.443v-9.381h-2.294v.884c-.706-.725-1.67-1.198-2.95-1.198Zm.213 2.046c1.442 0 2.923 1.175 2.923 3.181 0 2.04-1.477 3.163-2.955 3.163-1.568 0-3.027-1.214-3.027-3.143 0-2.005 1.515-3.2 3.06-3.2Z" fill="#4885ED"/><path d="M73.001 15.818c-2.775 0-5.104 2.106-5.104 5.213 0 3.288 2.596 5.239 5.37 5.239 2.316 0 3.737-1.209 4.585-2.291l-1.892-1.201c-.49.727-1.311 1.437-2.68 1.437-1.54 0-2.246-.804-2.685-1.582l7.338-2.905-.38-.851c-.71-1.667-2.363-3.06-4.552-3.06Zm.096 2.007c1 0 1.72.508 2.025 1.116l-4.9 1.953c-.212-1.512 1.29-3.069 2.875-3.069Z" fill="#DB3236"/><path d="M64.398 25.96h2.41V10.572h-2.41V25.96Z" fill="#3CBA54"/><path d="M25.044 38.75c-.563-.162-.973-.36-1.23-.595a1.147 1.147 0 0 1-.383-.875 1.2 1.2 0 0 1 .468-.971c.314-.258.722-.386 1.224-.386.341 0 .646.066.912.198.269.132.476.314.622.547.148.232.222.486.222.762h-.66c0-.3-.095-.536-.286-.707-.192-.174-.462-.26-.81-.26-.324 0-.577.072-.76.215-.18.141-.27.339-.27.592 0 .202.086.374.257.516.173.139.466.266.878.382.415.117.739.245.971.387.235.139.408.301.52.488.114.187.17.407.17.66 0 .403-.157.727-.471.97-.314.242-.735.363-1.261.363-.342 0-.661-.065-.957-.195a1.634 1.634 0 0 1-.687-.54 1.32 1.32 0 0 1-.24-.776h.66c0 .301.11.54.332.715.223.173.52.26.892.26.346 0 .612-.071.796-.212a.688.688 0 0 0 .277-.578c0-.244-.085-.432-.256-.564-.171-.135-.481-.267-.93-.397Zm3.394 2.218h-.656V35.99h.656v4.977Zm4.54-4.437h-1.6v4.437h-.653V36.53h-1.597v-.54h3.85v.54Zm3.55 2.136h-2.156v1.764h2.505v.537h-3.162V35.99h3.128v.54h-2.471v1.6h2.156v.536Zm4.369.082c-.563-.161-.974-.36-1.231-.594a1.147 1.147 0 0 1-.383-.875 1.2 1.2 0 0 1 .468-.971c.315-.258.723-.386 1.224-.386.342 0 .646.066.913.198.269.132.476.314.622.547.148.232.222.486.222.762h-.66c0-.3-.095-.536-.287-.707-.191-.174-.461-.26-.81-.26-.324 0-.576.072-.759.215-.18.141-.27.339-.27.592 0 .202.086.374.257.516.173.139.466.266.878.382.415.117.738.245.97.387.235.139.409.301.52.488.114.187.171.407.171.66 0 .403-.157.727-.471.97-.315.242-.735.363-1.262.363-.342 0-.66-.065-.957-.195a1.634 1.634 0 0 1-.687-.54 1.32 1.32 0 0 1-.239-.776h.66c0 .301.11.54.331.715.224.173.52.26.892.26.347 0 .612-.071.797-.212a.688.688 0 0 0 .277-.578c0-.244-.086-.432-.257-.564-.17-.135-.48-.267-.93-.397Zm5.502-.082h-2.156v1.764h2.505v.537h-3.162V35.99h3.128v.54h-2.471v1.6h2.156v.536Zm4.84 1.648a1.526 1.526 0 0 1-.707.543c-.301.119-.652.178-1.053.178-.406 0-.766-.095-1.08-.284a1.924 1.924 0 0 1-.732-.813 2.82 2.82 0 0 1-.263-1.22v-.434c0-.75.175-1.331.523-1.744.351-.412.843-.618 1.477-.618.52 0 .938.133 1.254.4.317.264.51.64.581 1.128h-.656c-.123-.659-.515-.988-1.176-.988-.44 0-.773.155-1.001.465-.226.307-.34.754-.342 1.34v.406c0 .559.128 1.003.383 1.333.255.328.6.492 1.035.492.246 0 .462-.027.646-.082a.999.999 0 0 0 .458-.276v-1.118h-1.151v-.533h1.804v1.825Zm4.6-4.324v3.384c-.001.47-.15.853-.444 1.152-.291.298-.688.466-1.189.502l-.174.007c-.545 0-.979-.147-1.302-.44-.324-.295-.488-.7-.493-1.214v-3.39h.65v3.37c0 .36.099.64.297.84.198.198.48.297.848.297.371 0 .655-.099.85-.297.2-.198.298-.477.298-.837V35.99h.66Zm2.862 2.964h-1.17v2.013h-.659V35.99h1.648c.56 0 .99.128 1.291.383.304.255.455.627.455 1.114 0 .31-.084.58-.253.81a1.49 1.49 0 0 1-.697.516l1.169 2.113v.04h-.704l-1.08-2.012Zm-1.17-.537h1.009c.326 0 .584-.084.776-.253.194-.169.29-.394.29-.677 0-.307-.092-.543-.276-.707-.183-.164-.447-.248-.793-.25h-1.005v1.887Zm7.486.222c0 .488-.082.914-.246 1.278-.164.363-.397.64-.697.831-.301.191-.652.287-1.053.287a1.91 1.91 0 0 1-1.043-.287 1.933 1.933 0 0 1-.707-.824 2.985 2.985 0 0 1-.256-1.24v-.36c0-.478.083-.9.25-1.267.166-.367.4-.648.703-.841a1.894 1.894 0 0 1 1.046-.294c.399 0 .75.097 1.053.29.305.192.54.47.704.838.164.364.246.79.246 1.275v.314Zm-.653-.321c0-.59-.118-1.043-.355-1.357-.237-.317-.569-.475-.995-.475-.415 0-.742.158-.98.475-.238.314-.36.752-.367 1.312v.366c0 .572.12 1.022.36 1.35.24.326.572.489.994.489.424 0 .752-.154.984-.462.233-.31.352-.753.36-1.33v-.368Z" fill="#000" fill-opacity=".5"/><path d="M62.643 53.107c-6.514 0-14.476-4.976-17.643-7.464-2.171 1.628-12.667 5.655-17.643 7.464l.679 14.929c1.357 9.5 6.107 12.893 16.964 19 11.943-5.972 16.286-15.155 16.964-19 .227-1.81.679-7.329.679-14.929Z" fill="#0C874B" stroke="#0C874B"/><mask id="a" style="mask-type:alpha" maskUnits="userSpaceOnUse" x="26" y="45" width="38" height="43"><path d="M62.643 53.107c-6.514 0-14.476-4.976-17.643-7.464-2.171 1.629-12.667 5.655-17.643 7.464l.679 14.929c1.357 9.5 6.107 12.893 16.964 19 11.943-5.972 16.286-15.155 16.964-19 .227-1.81.679-7.329.679-14.929Z" fill="#0C874B" stroke="#0C874B"/></mask><g mask="url(#a)"><path fill="#3CBA54" d="M45 44h19v43H45z"/></g><path d="M62.982 51.614a59.439 59.439 0 0 1-8.984-3.189 61.066 61.066 0 0 1-8.252-4.356L45 43.606l-.733.475a61.047 61.047 0 0 1-8.251 4.356 59.424 59.424 0 0 1-8.998 3.176L26 51.872v11.319c0 18.172 18.362 24.971 18.539 25.039l.461.163.461-.163c.19 0 18.539-6.854 18.539-25.04V51.873l-1.018-.258Zm-1.696 11.577c0 14.928-13.572 21.185-16.286 22.297-2.714-1.112-16.286-7.382-16.286-22.297v-9.215a64.507 64.507 0 0 0 8.387-3.054A65.445 65.445 0 0 0 45 46.851a65.445 65.445 0 0 0 7.899 4.071 64.507 64.507 0 0 0 8.387 3.054v9.215Z" fill="#fff"/><path d="M35.337 64.466a1.357 1.357 0 0 0-1.913 1.914l8.142 8.143L56.4 60.259a1.363 1.363 0 0 0-1.9-1.954L41.648 70.777l-6.31-6.31Z" fill="#fff"/></svg>